<svg width="87" height="32" viewBox="0 0 87 32" fill="none" xmlns="http://www.w3.org/2000/svg">
<rect width="87" height="32" fill="#EF6C00"/>
<path d="M17.5574 16.1364C17.5574 17.0682 17.3869 17.8693 17.046 18.5398C16.7051 19.2074 16.2377 19.7216 15.644 20.0824C15.0531 20.4403 14.3812 20.6193 13.6284 20.6193C12.8727 20.6193 12.198 20.4403 11.6042 20.0824C11.0133 19.7216 10.5474 19.206 10.2065 18.5355C9.86559 17.8651 9.69513 17.0653 9.69513 16.1364C9.69513 15.2045 9.86559 14.4048 10.2065 13.7372C10.5474 13.0668 11.0133 12.5526 11.6042 12.1946C12.198 11.8338 12.8727 11.6534 13.6284 11.6534C14.3812 11.6534 15.0531 11.8338 15.644 12.1946C16.2377 12.5526 16.7051 13.0668 17.046 13.7372C17.3869 14.4048 17.5574 15.2045 17.5574 16.1364ZM16.2534 16.1364C16.2534 15.4261 16.1383 14.8281 15.9082 14.3423C15.6809 13.8537 15.3684 13.4844 14.9707 13.2344C14.5758 12.9815 14.1284 12.8551 13.6284 12.8551C13.1255 12.8551 12.6767 12.9815 12.2818 13.2344C11.8869 13.4844 11.5744 13.8537 11.3443 14.3423C11.117 14.8281 11.0034 15.4261 11.0034 16.1364C11.0034 16.8466 11.117 17.446 11.3443 17.9347C11.5744 18.4205 11.8869 18.7898 12.2818 19.0426C12.6767 19.2926 13.1255 19.4176 13.6284 19.4176C14.1284 19.4176 14.5758 19.2926 14.9707 19.0426C15.3684 18.7898 15.6809 18.4205 15.9082 17.9347C16.1383 17.446 16.2534 16.8466 16.2534 16.1364ZM24.8113 11.7727H26.1323V17.5128C26.1323 18.1236 25.9888 18.6648 25.7019 19.1364C25.415 19.6051 25.0115 19.9744 24.4917 20.2443C23.9718 20.5114 23.3624 20.6449 22.6635 20.6449C21.9675 20.6449 21.3596 20.5114 20.8397 20.2443C20.3198 19.9744 19.9164 19.6051 19.6294 19.1364C19.3425 18.6648 19.199 18.1236 19.199 17.5128V11.7727H20.5158V17.4062C20.5158 17.8011 20.6025 18.152 20.7757 18.4588C20.9519 18.7656 21.2005 19.0071 21.5215 19.1832C21.8425 19.3565 22.2232 19.4432 22.6635 19.4432C23.1067 19.4432 23.4888 19.3565 23.8098 19.1832C24.1337 19.0071 24.3809 18.7656 24.5513 18.4588C24.7246 18.152 24.8113 17.8011 24.8113 17.4062V11.7727ZM28.0467 20.5V11.7727H31.1575C31.8336 11.7727 32.3947 11.8892 32.8407 12.1222C33.2896 12.3551 33.6248 12.6776 33.8464 13.0895C34.068 13.4986 34.1788 13.9716 34.1788 14.5085C34.1788 15.0426 34.0666 15.5128 33.8422 15.919C33.6206 16.3224 33.2853 16.6364 32.8365 16.8608C32.3904 17.0852 31.8294 17.1974 31.1532 17.1974H28.7967V16.0639H31.0339C31.46 16.0639 31.8066 16.0028 32.0737 15.8807C32.3436 15.7585 32.541 15.581 32.666 15.348C32.791 15.1151 32.8535 14.8352 32.8535 14.5085C32.8535 14.179 32.7896 13.8935 32.6618 13.652C32.5368 13.4105 32.3393 13.2259 32.0694 13.098C31.8024 12.9673 31.4515 12.902 31.0169 12.902H29.3635V20.5H28.0467ZM32.3549 16.5625L34.5112 20.5H33.0112L30.8975 16.5625H32.3549ZM38.9569 20.5V11.7727H42.0676C42.7466 11.7727 43.3091 11.8963 43.7551 12.1435C44.2012 12.3906 44.535 12.7287 44.7566 13.1577C44.9782 13.5838 45.089 14.0639 45.089 14.598C45.089 15.1349 44.9767 15.6179 44.7523 16.0469C44.5307 16.473 44.1955 16.8111 43.7466 17.0611C43.3006 17.3082 42.7395 17.4318 42.0634 17.4318H39.9242V16.3153H41.9441C42.373 16.3153 42.7211 16.2415 42.9881 16.0938C43.2551 15.9432 43.4512 15.7386 43.5762 15.4801C43.7012 15.2216 43.7637 14.9276 43.7637 14.598C43.7637 14.2685 43.7012 13.9759 43.5762 13.7202C43.4512 13.4645 43.2537 13.2642 42.9838 13.1193C42.7168 12.9744 42.3645 12.902 41.927 12.902H40.2736V20.5H38.9569ZM46.6326 20.5V11.7727H47.9494V19.3665H51.9039V20.5H46.6326ZM54.5886 20.5H53.1909L56.3315 11.7727H57.8528L60.9934 20.5H59.5957L57.1284 13.358H57.0602L54.5886 20.5ZM54.823 17.0824H59.3571V18.1903H54.823V17.0824ZM69.2978 11.7727V20.5H68.0875L63.6515 14.0994H63.5705V20.5H62.2537V11.7727H63.4725L67.9128 18.1818H67.9938V11.7727H69.2978ZM75.9785 14.0653C75.9331 13.6619 75.7456 13.3494 75.416 13.1278C75.0865 12.9034 74.6717 12.7912 74.1717 12.7912C73.8137 12.7912 73.5041 12.848 73.2427 12.9616C72.9814 13.0724 72.7782 13.2259 72.6333 13.4219C72.4913 13.6151 72.4203 13.8352 72.4203 14.0824C72.4203 14.2898 72.4686 14.4687 72.5652 14.6193C72.6646 14.7699 72.7939 14.8963 72.9529 14.9986C73.1149 15.098 73.2882 15.1818 73.4728 15.25C73.6575 15.3153 73.835 15.3693 74.0055 15.4119L74.8578 15.6335C75.1362 15.7017 75.4217 15.794 75.7143 15.9105C76.0069 16.027 76.2782 16.1804 76.5282 16.3707C76.7782 16.5611 76.9799 16.7969 77.1333 17.0781C77.2896 17.3594 77.3677 17.696 77.3677 18.0881C77.3677 18.5824 77.2399 19.0213 76.9842 19.4048C76.7314 19.7884 76.3635 20.0909 75.8805 20.3125C75.4004 20.5341 74.8194 20.6449 74.1376 20.6449C73.4842 20.6449 72.9189 20.5412 72.4416 20.3338C71.9643 20.1264 71.5907 19.8324 71.3208 19.4517C71.051 19.0682 70.9018 18.6136 70.8734 18.0881H72.1944C72.22 18.4034 72.3223 18.6662 72.5012 18.8764C72.6831 19.0838 72.9146 19.2386 73.1958 19.3409C73.4799 19.4403 73.791 19.4901 74.1291 19.4901C74.5012 19.4901 74.8322 19.4318 75.122 19.3153C75.4146 19.196 75.6447 19.0312 75.8123 18.821C75.9799 18.608 76.0637 18.3594 76.0637 18.0753C76.0637 17.8168 75.9899 17.6051 75.8422 17.4403C75.6973 17.2756 75.4998 17.1392 75.2498 17.0312C75.0027 16.9233 74.7228 16.8281 74.4103 16.7457L73.3791 16.4645C72.6802 16.2741 72.1262 15.9943 71.7172 15.625C71.3109 15.2557 71.1078 14.767 71.1078 14.1591C71.1078 13.6562 71.2441 13.2173 71.5169 12.8423C71.7896 12.4673 72.1589 12.1761 72.6248 11.9688C73.0907 11.7585 73.6163 11.6534 74.2015 11.6534C74.7924 11.6534 75.3137 11.7571 75.7654 11.9645C76.22 12.1719 76.5779 12.4574 76.8393 12.821C77.1007 13.1818 77.237 13.5966 77.2484 14.0653H75.9785Z" fill="white"/>
</svg>
