<svg width="88" height="32" viewBox="0 0 88 32" fill="none" xmlns="http://www.w3.org/2000/svg">
<path d="M0.5 16C0.5 7.16344 7.66344 0 16.5 0H71.5C80.3366 0 87.5 7.16344 87.5 16C87.5 24.8366 80.3366 32 71.5 32H16.5C7.66344 32 0.5 24.8366 0.5 16Z" fill="#6B68FF"/>
<path d="M18.0574 16.1364C18.0574 17.0682 17.8869 17.8693 17.546 18.5398C17.2051 19.2074 16.7377 19.7216 16.144 20.0824C15.5531 20.4403 14.8812 20.6193 14.1284 20.6193C13.3727 20.6193 12.698 20.4403 12.1042 20.0824C11.5133 19.7216 11.0474 19.206 10.7065 18.5355C10.3656 17.8651 10.1951 17.0653 10.1951 16.1364C10.1951 15.2045 10.3656 14.4048 10.7065 13.7372C11.0474 13.0668 11.5133 12.5526 12.1042 12.1946C12.698 11.8338 13.3727 11.6534 14.1284 11.6534C14.8812 11.6534 15.5531 11.8338 16.144 12.1946C16.7377 12.5526 17.2051 13.0668 17.546 13.7372C17.8869 14.4048 18.0574 15.2045 18.0574 16.1364ZM16.7534 16.1364C16.7534 15.4261 16.6383 14.8281 16.4082 14.3423C16.1809 13.8537 15.8684 13.4844 15.4707 13.2344C15.0758 12.9815 14.6284 12.8551 14.1284 12.8551C13.6255 12.8551 13.1767 12.9815 12.7818 13.2344C12.3869 13.4844 12.0744 13.8537 11.8443 14.3423C11.617 14.8281 11.5034 15.4261 11.5034 16.1364C11.5034 16.8466 11.617 17.446 11.8443 17.9347C12.0744 18.4205 12.3869 18.7898 12.7818 19.0426C13.1767 19.2926 13.6255 19.4176 14.1284 19.4176C14.6284 19.4176 15.0758 19.2926 15.4707 19.0426C15.8684 18.7898 16.1809 18.4205 16.4082 17.9347C16.6383 17.446 16.7534 16.8466 16.7534 16.1364ZM25.3113 11.7727H26.6323V17.5128C26.6323 18.1236 26.4888 18.6648 26.2019 19.1364C25.915 19.6051 25.5115 19.9744 24.9917 20.2443C24.4718 20.5114 23.8624 20.6449 23.1635 20.6449C22.4675 20.6449 21.8596 20.5114 21.3397 20.2443C20.8198 19.9744 20.4164 19.6051 20.1294 19.1364C19.8425 18.6648 19.699 18.1236 19.699 17.5128V11.7727H21.0158V17.4062C21.0158 17.8011 21.1025 18.152 21.2757 18.4588C21.4519 18.7656 21.7005 19.0071 22.0215 19.1832C22.3425 19.3565 22.7232 19.4432 23.1635 19.4432C23.6067 19.4432 23.9888 19.3565 24.3098 19.1832C24.6337 19.0071 24.8809 18.7656 25.0513 18.4588C25.2246 18.152 25.3113 17.8011 25.3113 17.4062V11.7727ZM28.5467 20.5V11.7727H31.6575C32.3336 11.7727 32.8947 11.8892 33.3407 12.1222C33.7896 12.3551 34.1248 12.6776 34.3464 13.0895C34.568 13.4986 34.6788 13.9716 34.6788 14.5085C34.6788 15.0426 34.5666 15.5128 34.3422 15.919C34.1206 16.3224 33.7853 16.6364 33.3365 16.8608C32.8904 17.0852 32.3294 17.1974 31.6532 17.1974H29.2967V16.0639H31.5339C31.96 16.0639 32.3066 16.0028 32.5737 15.8807C32.8436 15.7585 33.041 15.581 33.166 15.348C33.291 15.1151 33.3535 14.8352 33.3535 14.5085C33.3535 14.179 33.2896 13.8935 33.1618 13.652C33.0368 13.4105 32.8393 13.2259 32.5694 13.098C32.3024 12.9673 31.9515 12.902 31.5169 12.902H29.8635V20.5H28.5467ZM32.8549 16.5625L35.0112 20.5H33.5112L31.3975 16.5625H32.8549ZM39.4569 20.5V11.7727H42.5676C43.2466 11.7727 43.8091 11.8963 44.2551 12.1435C44.7012 12.3906 45.035 12.7287 45.2566 13.1577C45.4782 13.5838 45.589 14.0639 45.589 14.598C45.589 15.1349 45.4767 15.6179 45.2523 16.0469C45.0307 16.473 44.6955 16.8111 44.2466 17.0611C43.8006 17.3082 43.2395 17.4318 42.5634 17.4318H40.4242V16.3153H42.4441C42.873 16.3153 43.2211 16.2415 43.4881 16.0938C43.7551 15.9432 43.9512 15.7386 44.0762 15.4801C44.2012 15.2216 44.2637 14.9276 44.2637 14.598C44.2637 14.2685 44.2012 13.9759 44.0762 13.7202C43.9512 13.4645 43.7537 13.2642 43.4838 13.1193C43.2168 12.9744 42.8645 12.902 42.427 12.902H40.7736V20.5H39.4569ZM47.1326 20.5V11.7727H48.4494V19.3665H52.4039V20.5H47.1326ZM55.0886 20.5H53.6909L56.8315 11.7727H58.3528L61.4934 20.5H60.0957L57.6284 13.358H57.5602L55.0886 20.5ZM55.323 17.0824H59.8571V18.1903H55.323V17.0824ZM69.7978 11.7727V20.5H68.5875L64.1515 14.0994H64.0705V20.5H62.7537V11.7727H63.9725L68.4128 18.1818H68.4938V11.7727H69.7978ZM76.4785 14.0653C76.4331 13.6619 76.2456 13.3494 75.916 13.1278C75.5865 12.9034 75.1717 12.7912 74.6717 12.7912C74.3137 12.7912 74.0041 12.848 73.7427 12.9616C73.4814 13.0724 73.2782 13.2259 73.1333 13.4219C72.9913 13.6151 72.9203 13.8352 72.9203 14.0824C72.9203 14.2898 72.9686 14.4687 73.0652 14.6193C73.1646 14.7699 73.2939 14.8963 73.4529 14.9986C73.6149 15.098 73.7882 15.1818 73.9728 15.25C74.1575 15.3153 74.335 15.3693 74.5055 15.4119L75.3578 15.6335C75.6362 15.7017 75.9217 15.794 76.2143 15.9105C76.5069 16.027 76.7782 16.1804 77.0282 16.3707C77.2782 16.5611 77.4799 16.7969 77.6333 17.0781C77.7896 17.3594 77.8677 17.696 77.8677 18.0881C77.8677 18.5824 77.7399 19.0213 77.4842 19.4048C77.2314 19.7884 76.8635 20.0909 76.3805 20.3125C75.9004 20.5341 75.3194 20.6449 74.6376 20.6449C73.9842 20.6449 73.4189 20.5412 72.9416 20.3338C72.4643 20.1264 72.0907 19.8324 71.8208 19.4517C71.551 19.0682 71.4018 18.6136 71.3734 18.0881H72.6944C72.72 18.4034 72.8223 18.6662 73.0012 18.8764C73.1831 19.0838 73.4146 19.2386 73.6958 19.3409C73.9799 19.4403 74.291 19.4901 74.6291 19.4901C75.0012 19.4901 75.3322 19.4318 75.622 19.3153C75.9146 19.196 76.1447 19.0312 76.3123 18.821C76.4799 18.608 76.5637 18.3594 76.5637 18.0753C76.5637 17.8168 76.4899 17.6051 76.3422 17.4403C76.1973 17.2756 75.9998 17.1392 75.7498 17.0312C75.5027 16.9233 75.2228 16.8281 74.9103 16.7457L73.8791 16.4645C73.1802 16.2741 72.6262 15.9943 72.2172 15.625C71.8109 15.2557 71.6078 14.767 71.6078 14.1591C71.6078 13.6562 71.7441 13.2173 72.0169 12.8423C72.2896 12.4673 72.6589 12.1761 73.1248 11.9688C73.5907 11.7585 74.1163 11.6534 74.7015 11.6534C75.2924 11.6534 75.8137 11.7571 76.2654 11.9645C76.72 12.1719 77.0779 12.4574 77.3393 12.821C77.6007 13.1818 77.737 13.5966 77.7484 14.0653H76.4785Z" fill="white"/>
</svg>
