<svg width="56" height="56" viewBox="0 0 56 56" fill="none" xmlns="http://www.w3.org/2000/svg">
<g clip-path="url(#clip0_322_6695)">
<path d="M15.7816 23.3858C15.7816 24.0798 15.8561 24.6426 15.9864 25.0552C16.1354 25.4679 16.3217 25.9181 16.5824 26.4058C16.6756 26.5558 16.7128 26.7059 16.7128 26.8372C16.7128 27.0248 16.6011 27.2123 16.3589 27.3999L15.1856 28.1877C15.0179 28.3003 14.8503 28.3565 14.7013 28.3565C14.5151 28.3565 14.3288 28.2627 14.1426 28.0939C13.8818 27.8126 13.6583 27.5125 13.4721 27.2123C13.2858 26.8935 13.0996 26.5371 12.8947 26.1056C11.4419 27.8313 9.61668 28.6942 7.41893 28.6942C5.85442 28.6942 4.60655 28.244 3.69392 27.3436C2.7813 26.4433 2.31567 25.2428 2.31567 23.7422C2.31567 22.1478 2.87442 20.8536 4.01055 19.8782C5.14667 18.9028 6.6553 18.4151 8.57368 18.4151C9.20693 18.4151 9.8588 18.4714 10.5479 18.5652C11.2371 18.6589 11.9448 18.809 12.6898 18.9778V17.6085C12.6898 16.183 12.3918 15.1888 11.8144 14.6073C11.2184 14.0259 10.2127 13.7445 8.77855 13.7445C8.12668 13.7445 7.45618 13.8195 6.76705 13.9883C6.07792 14.1572 5.40742 14.3635 4.75555 14.6261C4.45755 14.7574 4.23405 14.8324 4.10367 14.8699C3.9733 14.9075 3.88017 14.9262 3.80567 14.9262C3.54492 14.9262 3.41455 14.7386 3.41455 14.3447V13.4256C3.41455 13.1255 3.4518 12.9004 3.54492 12.7691C3.63805 12.6378 3.80567 12.5065 4.06642 12.3752C4.7183 12.0376 5.50055 11.7562 6.41317 11.5311C7.3258 11.2873 8.2943 11.1747 9.31868 11.1747C11.5351 11.1747 13.1554 11.6812 14.1984 12.6941C15.2228 13.707 15.7443 15.2451 15.7443 17.3084V23.3858H15.7816ZM8.2198 26.2369C8.83443 26.2369 9.46768 26.1244 10.1382 25.8993C10.8087 25.6742 11.4047 25.2616 11.9076 24.6988C12.2056 24.3424 12.4291 23.9485 12.5408 23.4984C12.6526 23.0482 12.7271 22.5042 12.7271 21.8665V21.0786C12.1869 20.9473 11.6096 20.8348 11.0136 20.7598C10.4176 20.6847 9.84018 20.6472 9.2628 20.6472C8.01493 20.6472 7.1023 20.8911 6.48768 21.3975C5.87305 21.904 5.57505 22.6168 5.57505 23.5546C5.57505 24.4362 5.79855 25.0927 6.26417 25.5429C6.71117 26.0119 7.36305 26.2369 8.2198 26.2369ZM23.1757 28.2627C22.8404 28.2627 22.6169 28.2065 22.4679 28.0752C22.3189 27.9626 22.1886 27.7 22.0768 27.3436L17.6999 12.8441C17.5882 12.469 17.5323 12.2251 17.5323 12.0938C17.5323 11.7937 17.6813 11.6249 17.9793 11.6249H19.8046C20.1584 11.6249 20.4006 11.6812 20.5309 11.8125C20.6799 11.925 20.7917 12.1876 20.9034 12.544L24.0324 24.9614L26.9379 12.544C27.0311 12.1689 27.1428 11.925 27.2918 11.8125C27.4408 11.6999 27.7016 11.6249 28.0368 11.6249H29.5268C29.8807 11.6249 30.1228 11.6812 30.2718 11.8125C30.4208 11.925 30.5512 12.1876 30.6257 12.544L33.5684 25.1115L36.7906 12.544C36.9023 12.1689 37.0327 11.925 37.1631 11.8125C37.3121 11.6999 37.5542 11.6249 37.8894 11.6249H39.6216C39.9196 11.6249 40.0872 11.775 40.0872 12.0938C40.0872 12.1876 40.0686 12.2814 40.0499 12.394C40.0313 12.5065 39.9941 12.6566 39.9196 12.8629L35.4309 27.3624C35.3192 27.7375 35.1888 27.9814 35.0398 28.0939C34.8908 28.2065 34.6487 28.2815 34.3321 28.2815H32.7303C32.3764 28.2815 32.1343 28.2252 31.9853 28.0939C31.8363 27.9626 31.7059 27.7188 31.6314 27.3436L28.7446 15.2451L25.8763 27.3249C25.7832 27.7 25.6714 27.9439 25.5224 28.0752C25.3734 28.2065 25.1127 28.2627 24.7774 28.2627H23.1757ZM47.1088 28.7692C46.1403 28.7692 45.1718 28.6567 44.2406 28.4316C43.3093 28.2065 42.5829 27.9626 42.0987 27.6813C41.8007 27.5125 41.5958 27.3249 41.5213 27.1561C41.4468 26.9872 41.4096 26.7997 41.4096 26.6309V25.6742C41.4096 25.2803 41.5586 25.0927 41.8379 25.0927C41.9497 25.0927 42.0614 25.1115 42.1732 25.149C42.2849 25.1865 42.4526 25.2616 42.6388 25.3366C43.2721 25.618 43.9612 25.843 44.6876 25.9931C45.4326 26.1432 46.1589 26.2182 46.9039 26.2182C48.0773 26.2182 48.9899 26.0119 49.6232 25.5992C50.2564 25.1865 50.5917 24.5863 50.5917 23.8172C50.5917 23.292 50.4241 22.8606 50.0888 22.5042C49.7536 22.1478 49.1203 21.8289 48.2077 21.5288L45.5071 20.6847C44.1474 20.2533 43.1417 19.6156 42.5271 18.7715C41.9124 17.9462 41.5958 17.027 41.5958 16.0517C41.5958 15.2638 41.7634 14.5698 42.0987 13.9696C42.4339 13.3693 42.8809 12.8441 43.4397 12.4315C43.9984 12 44.6317 11.6812 45.3767 11.4561C46.1217 11.231 46.9039 11.1372 47.7234 11.1372C48.1332 11.1372 48.5616 11.156 48.9713 11.2122C49.3997 11.2685 49.7908 11.3435 50.1819 11.4186C50.5544 11.5124 50.9083 11.6061 51.2436 11.7187C51.5788 11.8312 51.8396 11.9438 52.0258 12.0563C52.2866 12.2064 52.4728 12.3564 52.5846 12.5253C52.6963 12.6753 52.7522 12.8816 52.7522 13.1443V14.0259C52.7522 14.4198 52.6032 14.6261 52.3238 14.6261C52.1748 14.6261 51.9327 14.5511 51.6161 14.401C50.5544 13.9133 49.3624 13.6695 48.0401 13.6695C46.9784 13.6695 46.1403 13.8383 45.5629 14.1947C44.9856 14.5511 44.6876 15.095 44.6876 15.8641C44.6876 16.3893 44.8738 16.8395 45.2463 17.1959C45.6188 17.5523 46.3079 17.9086 47.2951 18.2275L49.9398 19.0716C51.2808 19.503 52.2493 20.1033 52.8267 20.8723C53.4041 21.6414 53.6834 22.523 53.6834 23.4984C53.6834 24.3049 53.5158 25.0365 53.1992 25.6742C52.8639 26.312 52.4169 26.8747 51.8396 27.3249C51.2622 27.7938 50.5731 28.1314 49.7722 28.3753C48.9341 28.6379 48.0587 28.7692 47.1088 28.7692Z" fill="#252F3E"/>
<path fill-rule="evenodd" clip-rule="evenodd" d="M50.6287 37.8856C44.5011 42.4436 35.5983 44.8633 27.9435 44.8633C17.2155 44.8633 7.54909 40.868 0.248088 34.2279C-0.329287 33.7027 0.192213 32.9899 0.881338 33.4025C8.77834 38.0169 18.5192 40.8117 28.5953 40.8117C35.3935 40.8117 42.8621 39.3862 49.7347 36.46C50.7591 35.9911 51.6345 37.1353 50.6287 37.8856Z" fill="#808080"/>
<path fill-rule="evenodd" clip-rule="evenodd" d="M53.1804 34.9594C52.3981 33.9465 48.0026 34.4717 46.0098 34.7156C45.4138 34.7906 45.3206 34.2654 45.8608 33.8715C49.3623 31.3955 55.1174 32.1083 55.7879 32.9336C56.4584 33.7777 55.6016 39.5737 52.3236 42.3498C51.8208 42.7812 51.3365 42.5562 51.56 41.9934C52.305 40.1365 53.9626 35.9535 53.1804 34.9594Z" fill="#808080"/>
</g>
<defs>
<clipPath id="clip0_322_6695">
<rect width="56" height="56" fill="white"/>
</clipPath>
</defs>
</svg>
