<svg width="221" height="40" viewBox="0 0 221 40" fill="none" xmlns="http://www.w3.org/2000/svg">
<path d="M40.1249 20.0625C40.1249 8.98227 31.1427 0 20.0625 0C8.98227 0 0 8.98227 0 20.0625C0 28.789 5.60696 36.2142 13.3868 38.975C14.8066 39.4788 16.2999 39.8273 17.8463 40C18.5778 40 19.2418 40 20.003 40C31.0832 40 40.1249 31.1427 40.1249 20.0625Z" fill="#FEDB58"/>
<path d="M30.0937 32.0123C30.0937 36.4238 33.6699 40 38.0814 40H59.7231C64.1346 40 67.7108 36.4238 67.7108 32.0123V10.3706C67.7108 5.9591 64.1346 2.38287 59.7231 2.38287H38.0814C33.6699 2.38287 30.0937 5.9591 30.0937 10.3706V32.0123Z" fill="#4ABCED"/>
<path d="M34.7945 5.70606C33.8625 4.06219 31.5326 4.06219 30.6007 5.70606L13.2552 36.3013C12.7429 37.2049 12.8642 38.2326 13.3868 38.975C14.8062 39.4784 16.3034 39.829 17.8463 40H50.043C51.907 40 53.0719 37.9452 52.1399 36.3013L34.7945 5.70606Z" fill="#F76359"/>
<path d="M212.301 33.248C210.552 33.248 209.005 32.9067 207.661 32.224C206.317 31.52 205.261 30.5493 204.493 29.312C203.725 28.0747 203.341 26.656 203.341 25.056C203.341 23.4773 203.714 22.08 204.461 20.864C205.208 19.6267 206.221 18.656 207.501 17.952C208.802 17.2267 210.264 16.864 211.885 16.864C213.464 16.864 214.861 17.2053 216.077 17.888C217.314 18.5493 218.274 19.4773 218.957 20.672C219.661 21.8453 220.013 23.1893 220.013 24.704C220.013 25.024 219.992 25.3547 219.949 25.696C219.928 26.016 219.864 26.3893 219.757 26.816L205.965 26.88V23.296L217.549 23.2L215.053 24.768C215.032 23.8933 214.904 23.1787 214.669 22.624C214.434 22.048 214.093 21.6107 213.645 21.312C213.197 21.0133 212.632 20.864 211.949 20.864C211.245 20.864 210.637 21.0347 210.125 21.376C209.613 21.7173 209.218 22.1973 208.941 22.816C208.664 23.4347 208.525 24.1813 208.525 25.056C208.525 25.952 208.674 26.72 208.973 27.36C209.272 27.9787 209.698 28.448 210.253 28.768C210.808 29.088 211.49 29.248 212.301 29.248C213.069 29.248 213.741 29.12 214.317 28.864C214.914 28.608 215.448 28.2133 215.917 27.68L218.829 30.592C218.061 31.4667 217.122 32.128 216.013 32.576C214.925 33.024 213.688 33.248 212.301 33.248Z" fill="#232323"/>
<path d="M192.241 40C190.513 40 188.977 39.7013 187.633 39.104C186.31 38.528 185.275 37.7067 184.529 36.64L187.889 33.312C188.422 33.888 189.009 34.336 189.649 34.656C190.289 34.9973 191.067 35.168 191.985 35.168C193.094 35.168 193.969 34.8907 194.609 34.336C195.27 33.8027 195.601 33.024 195.601 32V27.936L196.497 24.544L195.697 21.184V17.248H201.169V31.808C201.169 33.472 200.774 34.912 199.985 36.128C199.217 37.3653 198.161 38.3147 196.817 38.976C195.473 39.6587 193.947 40 192.241 40ZM191.985 32.32C190.534 32.32 189.243 31.9893 188.113 31.328C187.003 30.6453 186.129 29.7173 185.489 28.544C184.849 27.3707 184.529 26.0587 184.529 24.608C184.529 23.1573 184.849 21.856 185.489 20.704C186.129 19.552 187.003 18.6347 188.113 17.952C189.243 17.2693 190.534 16.928 191.985 16.928C192.966 16.928 193.862 17.1093 194.673 17.472C195.505 17.8133 196.177 18.304 196.689 18.944C197.201 19.5627 197.521 20.288 197.649 21.12V28.128C197.521 28.96 197.19 29.696 196.657 30.336C196.145 30.9547 195.483 31.4453 194.673 31.808C193.862 32.1493 192.966 32.32 191.985 32.32ZM193.009 27.488C193.606 27.488 194.118 27.36 194.545 27.104C194.993 26.8267 195.334 26.4747 195.569 26.048C195.803 25.6 195.921 25.12 195.921 24.608C195.921 24.0747 195.803 23.5947 195.569 23.168C195.334 22.7413 195.003 22.4 194.577 22.144C194.15 21.8667 193.638 21.728 193.041 21.728C192.465 21.728 191.953 21.8667 191.505 22.144C191.078 22.4 190.747 22.752 190.513 23.2C190.278 23.6267 190.161 24.096 190.161 24.608C190.161 25.0987 190.278 25.568 190.513 26.016C190.747 26.4427 191.078 26.7947 191.505 27.072C191.931 27.3493 192.433 27.488 193.009 27.488Z" fill="#232323"/>
<path d="M173.023 33.216C171.509 33.216 170.175 32.864 169.023 32.16C167.871 31.456 166.965 30.496 166.303 29.28C165.663 28.0427 165.343 26.6453 165.343 25.088C165.343 23.5093 165.663 22.1013 166.303 20.864C166.965 19.6267 167.861 18.6667 168.991 17.984C170.143 17.28 171.487 16.928 173.023 16.928C174.005 16.928 174.922 17.1093 175.775 17.472C176.629 17.8133 177.343 18.304 177.919 18.944C178.495 19.584 178.837 20.3093 178.943 21.12V28.768C178.837 29.5787 178.495 30.3253 177.919 31.008C177.343 31.6907 176.629 32.2347 175.775 32.64C174.922 33.024 174.005 33.216 173.023 33.216ZM174.015 28.256C174.634 28.256 175.167 28.128 175.615 27.872C176.063 27.5947 176.415 27.2213 176.671 26.752C176.949 26.2613 177.087 25.696 177.087 25.056C177.087 24.4373 176.959 23.8933 176.703 23.424C176.447 22.9547 176.085 22.5813 175.615 22.304C175.167 22.0267 174.645 21.888 174.047 21.888C173.45 21.888 172.917 22.0267 172.447 22.304C171.999 22.5813 171.637 22.9653 171.359 23.456C171.103 23.9253 170.975 24.4587 170.975 25.056C170.975 25.6747 171.103 26.2293 171.359 26.72C171.615 27.1893 171.978 27.5627 172.447 27.84C172.917 28.1173 173.439 28.256 174.015 28.256ZM182.335 32.896H176.863V28.704L177.663 24.864L176.767 21.088V9.56799H182.335V32.896Z" fill="#232323"/>
<path d="M157.459 32.896V17.248H163.059V32.896H157.459ZM160.243 15.424C159.411 15.424 158.717 15.1467 158.163 14.592C157.608 14.016 157.331 13.3013 157.331 12.448C157.331 11.616 157.608 10.912 158.163 10.336C158.717 9.75998 159.411 9.47198 160.243 9.47198C161.117 9.47198 161.821 9.75998 162.355 10.336C162.909 10.912 163.187 11.616 163.187 12.448C163.187 13.3013 162.909 14.016 162.355 14.592C161.821 15.1467 161.117 15.424 160.243 15.424Z" fill="#232323"/>
<path d="M143.553 32.896V17.248H149.121V32.896H143.553ZM149.121 24.384L146.625 22.272C147.244 20.5013 148.065 19.168 149.089 18.272C150.113 17.376 151.447 16.928 153.089 16.928C153.836 16.928 154.476 17.024 155.009 17.216C155.564 17.408 156.033 17.7067 156.417 18.112L153.185 22.432C153.015 22.24 152.769 22.0907 152.449 21.984C152.151 21.856 151.809 21.792 151.425 21.792C150.7 21.792 150.135 22.016 149.729 22.464C149.324 22.8907 149.121 23.5307 149.121 24.384Z" fill="#232323"/>
<path d="M127.669 32.896V28.64H132.405C133.301 28.64 134.005 28.3947 134.517 27.904C135.05 27.392 135.317 26.7307 135.317 25.92C135.317 25.3867 135.2 24.9173 134.965 24.512C134.73 24.0853 134.389 23.7653 133.941 23.552C133.514 23.3173 133.002 23.2 132.405 23.2H127.669V19.072H132.053C132.8 19.072 133.408 18.8907 133.877 18.528C134.368 18.144 134.613 17.5573 134.613 16.768C134.613 15.9787 134.368 15.4027 133.877 15.04C133.408 14.656 132.8 14.464 132.053 14.464H127.669V10.208H133.429C134.837 10.208 136.053 10.4747 137.077 11.008C138.122 11.5413 138.922 12.256 139.477 13.152C140.032 14.048 140.309 15.0613 140.309 16.192C140.309 17.7067 139.786 18.9653 138.741 19.968C137.717 20.9493 136.224 21.5573 134.261 21.792V19.872C136.437 20.128 138.101 20.832 139.253 21.984C140.405 23.1147 140.981 24.544 140.981 26.272C140.981 27.552 140.661 28.6933 140.021 29.696C139.381 30.6773 138.474 31.456 137.301 32.032C136.149 32.608 134.784 32.896 133.205 32.896H127.669ZM123.125 32.896V10.208H128.757V32.896H123.125Z" fill="#232323"/>
<path d="M107.928 27.104V22.336H119.48V27.104H107.928Z" fill="#232323"/>
<path d="M83.7108 32.896L92.5108 10.208H98.0468L106.751 32.896H100.767L94.2068 13.824H96.2868L89.5668 32.896H83.7108ZM89.0548 28.928V24.384H101.567V28.928H89.0548Z" fill="#232323"/>
</svg>
