<svg width="170" height="31" viewBox="0 0 170 31" fill="none" xmlns="http://www.w3.org/2000/svg">
<path d="M30.9034 15.4517C30.9034 6.91796 23.9854 0 15.4517 0C6.91796 0 0 6.91796 0 15.4517C0 22.1727 4.31837 27.8914 10.3103 30.0177C11.4037 30.4058 12.5539 30.6742 13.7449 30.8072C14.3083 30.8072 14.8196 30.8072 15.4059 30.8072C23.9396 30.8072 30.9034 23.9854 30.9034 15.4517Z" fill="#9A9DA0"/>
<path d="M23.1775 24.6552C23.1775 28.0528 25.9319 30.8072 29.3295 30.8072H45.9975C49.3951 30.8072 52.1495 28.0528 52.1495 24.6552V7.98723C52.1495 4.58958 49.3951 1.83524 45.9975 1.83524H29.3295C25.9319 1.83524 23.1775 4.58958 23.1775 7.98723V24.6552Z" fill="#CBCFD3"/>
<path d="M26.798 4.39469C26.0802 3.12861 24.2858 3.12861 23.568 4.39469L10.2089 27.9585C9.81434 28.6544 9.90774 29.4459 10.3103 30.0177C11.4034 30.4054 12.5566 30.6755 13.7449 30.8072H38.5421C39.9777 30.8072 40.8749 29.2246 40.1571 27.9585L26.798 4.39469Z" fill="#ACB2B8"/>
<path d="M163.51 25.6069C162.162 25.6069 160.971 25.344 159.936 24.8182C158.901 24.276 158.088 23.5284 157.496 22.5755C156.905 21.6225 156.609 20.5299 156.609 19.2976C156.609 18.0817 156.896 17.0055 157.471 16.069C158.047 15.116 158.827 14.3684 159.813 13.8262C160.815 13.2676 161.941 12.9883 163.189 12.9883C164.405 12.9883 165.481 13.2512 166.418 13.7769C167.371 14.2863 168.11 15.001 168.636 15.9211C169.178 16.8248 169.449 17.8599 169.449 19.0265C169.449 19.2729 169.433 19.5276 169.4 19.7905C169.384 20.037 169.334 20.3245 169.252 20.6531L158.63 20.7024V17.9421L167.552 17.8681L165.629 19.0758C165.613 18.4021 165.514 17.8517 165.333 17.4245C165.153 16.9809 164.89 16.6441 164.545 16.414C164.2 16.184 163.764 16.069 163.239 16.069C162.696 16.069 162.228 16.2004 161.834 16.4633C161.439 16.7262 161.135 17.0959 160.922 17.5724C160.708 18.0489 160.601 18.6239 160.601 19.2976C160.601 19.9877 160.717 20.5792 160.947 21.0721C161.177 21.5486 161.505 21.91 161.932 22.1565C162.36 22.403 162.885 22.5262 163.51 22.5262C164.101 22.5262 164.619 22.4276 165.062 22.2304C165.522 22.0333 165.933 21.7293 166.295 21.3185L168.537 23.5613C167.946 24.235 167.223 24.7443 166.369 25.0893C165.531 25.4344 164.578 25.6069 163.51 25.6069Z" fill="#5C5F61"/>
<path d="M148.06 30.8072C146.729 30.8072 145.546 30.5771 144.511 30.1171C143.492 29.6735 142.695 29.0409 142.12 28.2194L144.708 25.6562C145.119 26.0998 145.571 26.4449 146.063 26.6913C146.556 26.9542 147.156 27.0857 147.863 27.0857C148.717 27.0857 149.391 26.8721 149.884 26.4449C150.393 26.0341 150.648 25.4344 150.648 24.6457V21.5157L151.338 18.9033L150.721 16.3155V13.2841H154.936V24.4979C154.936 25.7794 154.632 26.8885 154.024 27.825C153.433 28.778 152.619 29.5092 151.584 30.0185C150.549 30.5443 149.374 30.8072 148.06 30.8072ZM147.863 24.8922C146.745 24.8922 145.751 24.6375 144.88 24.1282C144.026 23.6024 143.352 22.8877 142.859 21.984C142.367 21.0803 142.12 20.0698 142.12 18.9526C142.12 17.8353 142.367 16.833 142.859 15.9458C143.352 15.0585 144.026 14.352 144.88 13.8263C145.751 13.3005 146.745 13.0376 147.863 13.0376C148.618 13.0376 149.308 13.1773 149.933 13.4566C150.574 13.7195 151.091 14.0974 151.485 14.5903C151.88 15.0668 152.126 15.6254 152.225 16.2662V21.6636C152.126 22.3044 151.872 22.8712 151.461 23.3642C151.067 23.8406 150.557 24.2185 149.933 24.4979C149.308 24.7608 148.618 24.8922 147.863 24.8922ZM148.651 21.1707C149.111 21.1707 149.506 21.0721 149.834 20.8749C150.179 20.6613 150.442 20.3902 150.623 20.0616C150.804 19.7166 150.894 19.3469 150.894 18.9526C150.894 18.5418 150.804 18.1721 150.623 17.8435C150.442 17.5149 150.187 17.252 149.859 17.0549C149.53 16.8413 149.136 16.7345 148.676 16.7345C148.232 16.7345 147.838 16.8413 147.493 17.0549C147.164 17.252 146.91 17.5231 146.729 17.8682C146.548 18.1968 146.458 18.5582 146.458 18.9526C146.458 19.3305 146.548 19.6919 146.729 20.037C146.91 20.3656 147.164 20.6367 147.493 20.8503C147.822 21.0639 148.208 21.1707 148.651 21.1707Z" fill="#5C5F61"/>
<path d="M133.259 25.5823C132.092 25.5823 131.066 25.3112 130.178 24.769C129.291 24.2268 128.593 23.4874 128.083 22.5509C127.59 21.5979 127.344 20.5217 127.344 19.3223C127.344 18.1065 127.59 17.0221 128.083 16.0691C128.593 15.1161 129.283 14.3767 130.154 13.851C131.041 13.3088 132.076 13.0377 133.259 13.0377C134.015 13.0377 134.721 13.1773 135.379 13.4566C136.036 13.7195 136.586 14.0974 137.03 14.5903C137.473 15.0833 137.736 15.6419 137.818 16.2663V22.1566C137.736 22.7809 137.473 23.356 137.03 23.8818C136.586 24.4076 136.036 24.8265 135.379 25.1387C134.721 25.4345 134.015 25.5823 133.259 25.5823ZM134.023 21.7622C134.499 21.7622 134.91 21.6637 135.255 21.4665C135.6 21.2529 135.871 20.9654 136.069 20.6039C136.282 20.226 136.389 19.7906 136.389 19.2977C136.389 18.8212 136.29 18.4022 136.093 18.0407C135.896 17.6793 135.617 17.3917 135.255 17.1781C134.91 16.9645 134.508 16.8577 134.048 16.8577C133.588 16.8577 133.177 16.9645 132.815 17.1781C132.47 17.3917 132.191 17.6875 131.977 18.0654C131.78 18.4269 131.682 18.8376 131.682 19.2977C131.682 19.7742 131.78 20.2014 131.977 20.5793C132.175 20.9407 132.454 21.2283 132.815 21.4419C133.177 21.6555 133.579 21.7622 134.023 21.7622ZM140.431 25.3359H136.216V22.1073L136.833 19.1498L136.143 16.2416V7.36914H140.431V25.3359Z" fill="#5C5F61"/>
<path d="M121.271 25.3356V13.2838H125.584V25.3356H121.271ZM123.416 11.879C122.775 11.879 122.241 11.6654 121.814 11.2382C121.386 10.7946 121.173 10.2442 121.173 9.58697C121.173 8.94619 121.386 8.40398 121.814 7.96036C122.241 7.51673 122.775 7.29492 123.416 7.29492C124.089 7.29492 124.631 7.51673 125.042 7.96036C125.469 8.40398 125.683 8.94619 125.683 9.58697C125.683 10.2442 125.469 10.7946 125.042 11.2382C124.631 11.6654 124.089 11.879 123.416 11.879Z" fill="#5C5F61"/>
<path d="M110.562 25.3358V13.2841H114.85V25.3358H110.562ZM114.85 18.7801L112.928 17.1534C113.404 15.7897 114.037 14.7628 114.825 14.0727C115.614 13.3826 116.641 13.0376 117.906 13.0376C118.481 13.0376 118.974 13.1115 119.385 13.2594C119.812 13.4073 120.173 13.6373 120.469 13.9495L117.98 17.2767C117.848 17.1288 117.659 17.0138 117.413 16.9316C117.183 16.833 116.92 16.7837 116.624 16.7837C116.066 16.7837 115.63 16.9563 115.318 17.3013C115.006 17.6299 114.85 18.1228 114.85 18.7801Z" fill="#5C5F61"/>
<path d="M98.3278 25.3356V22.0578H101.975C102.665 22.0578 103.208 21.8688 103.602 21.4909C104.013 21.0966 104.218 20.5872 104.218 19.9629C104.218 19.5521 104.128 19.1906 103.947 18.8785C103.766 18.5499 103.503 18.3034 103.158 18.1391C102.83 17.9584 102.435 17.868 101.975 17.868H98.3278V14.6887H101.704C102.279 14.6887 102.748 14.549 103.109 14.2697C103.487 13.974 103.676 13.5221 103.676 12.9142C103.676 12.3063 103.487 11.8626 103.109 11.5833C102.748 11.2876 102.279 11.1397 101.704 11.1397H98.3278V7.86182H102.764C103.848 7.86182 104.785 8.0672 105.574 8.47796C106.379 8.88872 106.995 9.43914 107.422 10.1292C107.849 10.8193 108.063 11.5998 108.063 12.4706C108.063 13.6371 107.66 14.6065 106.855 15.3788C106.067 16.1346 104.916 16.6028 103.405 16.7836V15.3048C105.081 15.502 106.362 16.0442 107.25 16.9314C108.137 17.8023 108.58 18.9031 108.58 20.234C108.58 21.2198 108.334 22.0988 107.841 22.8711C107.348 23.6269 106.65 24.2266 105.746 24.6702C104.859 25.1138 103.807 25.3356 102.592 25.3356H98.3278ZM94.8281 25.3356V7.86182H99.1658V25.3356H94.8281Z" fill="#5C5F61"/>
<path d="M83.124 20.8749V17.2026H92.0211V20.8749H83.124Z" fill="#5C5F61"/>
<path d="M64.4727 25.3356L71.2502 7.86182H75.5139L82.2176 25.3356H77.6088L72.5565 10.6468H74.1584L68.9828 25.3356H64.4727ZM68.5885 22.2796V18.7799H78.225V22.2796H68.5885Z" fill="#5C5F61"/>
</svg>
